<svg id="Layer_1" data-name="Layer 1" xmlns="http://www.w3.org/2000/svg" viewBox="0 0 230.79 382.57"><defs><style>.cls-1{opacity:0.76;}.cls-2{fill:#f15a33;}</style></defs><title>capture-marker</title><g class="cls-1"><path class="cls-2" d="M314.56,122.5A115.4,115.4,0,1,0,86.07,145.31l-0.74.58,2.8,6.35a114.87,114.87,0,0,0,15.17,34.44l87,197.55s9.52,12.23,17,0c6.29-10.3,75.63-166.26,97.44-215.43,0.36-.81.74-1.6,1.08-2.42l5.63-12.69-1.38-1A114.28,114.28,0,0,0,314.56,122.5Zm-115.4,37.43a52.24,52.24,0,1,1,52.24-52.24A52.24,52.24,0,0,1,199.17,159.93Z" transform="translate(-83.77 -7.11)"/></g></svg>