<svg id="Layer_1" data-name="Layer 1" xmlns="http://www.w3.org/2000/svg" viewBox="0 0 188.8 239.03"><defs><style>.cls-1{opacity:0.72;}.cls-2{fill:#dededd;}.cls-3{fill:#656765;}</style></defs><title>crosswalk</title><g class="cls-1"><path class="cls-2" d="M182.44,9.29H28A17.21,17.21,0,0,0,10.81,26.46v204.7A17.21,17.21,0,0,0,28,248.32H182.44a17.21,17.21,0,0,0,17.16-17.16V26.46A17.21,17.21,0,0,0,182.44,9.29Zm9.65,217.54a12.92,12.92,0,0,1-12.91,12.91h-148a12.92,12.92,0,0,1-12.91-12.91V30.78A12.92,12.92,0,0,1,31.23,17.87h148a12.92,12.92,0,0,1,12.91,12.91V226.84ZM179.18,20.9h-148a9.91,9.91,0,0,0-9.88,9.88V226.84a9.91,9.91,0,0,0,9.88,9.88h148a9.91,9.91,0,0,0,9.88-9.88V30.78A9.91,9.91,0,0,0,179.18,20.9Z" transform="translate(-10.81 -9.29)"/></g><polygon class="cls-3" points="122.73 180.02 129.71 192.55 154.27 192.55 141.48 179.77 122.73 180.02"/><polygon class="cls-3" points="85.15 179.6 104.34 179.6 106.02 192.63 81.45 192.63 85.15 179.6"/><polygon class="cls-3" points="48.49 179.6 67.32 179.6 57.91 192.38 33.69 192.38 48.49 179.6"/><path class="cls-3" d="M114.92,69.41a11.23,11.23,0,1,0-11.22-11.22A11.23,11.23,0,0,0,114.92,69.41ZM147.1,109.9l0.07-.16-18.72-7.79-5.7-21.53a10.32,10.32,0,0,0-18-5.32L81.13,91.16l-6,27.36,0.55,0.12a4.87,4.87,0,1,0,9.32,2s0,0,0,0l5.1-23.35,9.44-6.43-7.35,29.39,0.38,0.1-6.69,25.34L69.4,171.54l0.15,0.09A7.39,7.39,0,1,0,82,179.58l0.15,0.09,17.79-27.9,5.27-20,14.19,17.28,6.36,28.14a7.57,7.57,0,1,0,15-1.92l0.08,0-7.46-33L113.55,118.1l4.25-17,2.18,8.23,23.32,9.7,0.06-.15A4.88,4.88,0,1,0,147.1,109.9Z" transform="translate(-10.81 -9.29)"/></svg>