<svg id="Layer_1" data-name="Layer 1" xmlns="http://www.w3.org/2000/svg" xmlns:xlink="http://www.w3.org/1999/xlink" viewBox="0 0 800.87 800.93"><defs><style>.cls-1,.cls-4{fill:none;}.cls-2{clip-path:url(#clip-path);}.cls-3{fill:#919191;}.cls-4{stroke:#a09f9f;stroke-miterlimit:10;stroke-width:6px;}.cls-5{fill:#7bc474;opacity:0.5;}</style><clipPath id="clip-path" transform="translate(3.09 2.85)"><rect class="cls-1" width="792" height="792"/></clipPath></defs><title>map-tile</title><g class="cls-2"><rect class="cls-3" x="3.09" y="2.85" width="792" height="792"/><polyline class="cls-4" points="2.48 65.58 189.88 89.19 305.13 146.34 399.09 185.82 795.09 218.84"/><polyline class="cls-4" points="2.48 368.51 327.09 431.35 363.09 438.85 795.09 454.43"/><polyline class="cls-4" points="436.09 2.85 363.09 363.85 363.09 648.85 364.64 800.61"/><polyline class="cls-4" points="507.09 2.85 436.09 218.84 409.09 438.85 407.09 609.85 446.77 720.85 437.97 794.69"/><polyline class="cls-4" points="580.09 2.85 507.09 218.84 507.09 434.85 512.39 794.69"/><polyline class="cls-4" points="580.09 408.07 507.09 401.33 418.3 363.85 164.08 226.09 3.09 219.34"/><path class="cls-4" d="M792,576" transform="translate(3.09 2.85)"/><polyline class="cls-4" points="363.09 2.85 305.13 146.34 291.09 423.85 291.09 684.43 286.39 720.85 277.44 758.01"/><polyline class="cls-4" points="222.34 800.92 220.09 409.05 239.45 161.88 291.09 2.85"/><polyline class="cls-4" points="148.91 799.42 164.39 648.85 147.09 393.85 173.09 137.16 220.09 2.85"/><path class="cls-4" d="M75.59,791.85" transform="translate(3.09 2.85)"/><polyline class="cls-4" points="147.09 2.85 147.09 83.8 75.09 378.85 75.09 507.85 93.39 648.85"/><polyline class="cls-4" points="795.09 146.34 412.76 125.06 189.88 89.19 147.09 83.8"/><polyline class="cls-4" points="3.09 794.85 3.09 702.53 39.63 511.83 31.52 369.77 59.03 94.68 75.09 2.85"/><path class="cls-4" d="M0,456.84l360,39.75,437.64,21.2" transform="translate(3.09 2.85)"/><polyline class="cls-4" points="3.09 146.84 172.11 146.84 427.13 291.85 795.09 291.85"/><path class="cls-4" d="M561.2,755" transform="translate(3.09 2.85)"/><polyline class="cls-4" points="3.09 291.6 156.69 299.05 363.09 391.44 412.76 401.73"/><polyline class="cls-4" points="687.1 595.35 691.28 291.85 700.86 146.34 730.47 0.6"/><polyline class="cls-4" points="0.23 520.07 407.09 551.93 508.71 544.62 508.71 544.62"/><polyline class="cls-4" points="3.08 578.85 407.09 609.85 514.46 589.53 596.85 595.35 589.42 562.25 508.71 544.62"/><polyline class="cls-4" points="795.09 578.85 675.28 597.15 428.51 669.75 363.09 648.85 3.09 648.85"/><polyline class="cls-4" points="795.09 702.53 446.35 723.11 363.82 719.65"/><polyline class="cls-4" points="795.09 2.85 747.21 146.84 735.17 506.68 723.34 648.85 728.39 794.69"/><polyline class="cls-4" points="291.09 2.85 344.15 49.75 483.85 73.55 795.09 65.58"/><polygon class="cls-5" points="420.76 368.51 501.44 404.95 502.28 440.95 412.76 435.18 420.76 368.51"/><path class="cls-4" d="M119.61,533.73" transform="translate(3.09 2.85)"/><path class="cls-4" d="M127.59,586.69" transform="translate(3.09 2.85)"/><polyline class="cls-4" points="422.65 328.37 507.09 344.94 580.09 344.94 651.59 344.94"/><line class="cls-4" x1="651.59" y1="344.94" x2="795.09" y2="363.85"/><line class="cls-4" x1="93.39" y1="648.85" x2="78.68" y2="794.69"/><polyline class="cls-4" points="800.73 758.01 222.07 754.94 3.09 720.85"/><line class="cls-4" x1="70.39" y1="794.85" x2="3.09" y2="720.85"/><polyline class="cls-4" points="580.09 2.85 580.09 218.84 580.09 520.7 611.3 659.69 584.39 794.85"/><polyline class="cls-4" points="655.44 794.69 675.28 597.15 647.71 513.22 620.78 291.85 620.78 219.34 652.09 2.85"/><polyline class="cls-4" points="514.46 648.85 611.3 659.69 795.09 642.48"/><line class="cls-4" x1="277.44" y1="758.01" x2="291.09" y2="794.85"/><polygon class="cls-5" points="654.77 520.07 687.1 520.63 682.44 595.35 675.28 597.15 654.77 520.07"/><polygon class="cls-5" points="157.44 482.47 220.09 490.16 215.44 531.47 157.44 531.47 157.44 490.16 157.44 482.47"/><polygon class="cls-5" points="258.02 104.68 313.44 115.07 305.13 146.34 258.02 115.07 258.02 104.68"/><polygon class="cls-5" points="641.44 104.68 703.44 100.47 698.94 137.97 636.94 135.47 641.44 104.68"/><polygon class="cls-5" points="12.95 651.08 86.03 659.69 78.68 723.11 12.95 712.82 12.95 651.08"/></g></svg>