<svg id="Layer_1" data-name="Layer 1" xmlns="http://www.w3.org/2000/svg" viewBox="0 0 386.73 386.73"><defs><style>.cls-1{fill:#fbbb18;}.cls-2{fill:#59595a;}</style></defs><title>safety-ok</title><path class="cls-1" d="M203.29,25.42a5.62,5.62,0,0,0-7.91,0l-171,171a5.6,5.6,0,0,0,0,7.92l171,171a5.62,5.62,0,0,0,7.91,0l171-171a5.63,5.63,0,0,0,0-7.92ZM386.15,184.53l-171-171a22.42,22.42,0,0,0-31.67,0l-171,171a22.42,22.42,0,0,0,0,31.66l171,171a22.43,22.43,0,0,0,31.67,0l171-171A22.41,22.41,0,0,0,386.15,184.53Zm-7.92,23.75-171,171a11.23,11.23,0,0,1-15.83,0l-171-171a11.23,11.23,0,0,1,0-15.83l171-171a11.23,11.23,0,0,1,15.83,0l171,171A11.23,11.23,0,0,1,378.23,208.28Z" transform="translate(-5.97 -7)"/><path class="cls-2" d="M198.44,92.94h1.81v18.28h-1.81V92.94Z" transform="translate(-5.97 -7)"/><path class="cls-2" d="M149,124.36h2l7.25,18.28h-1.89l-2-4.9H145.2l-2,4.9h-1.75Zm0.89,1.73-4,10.08h7.93Z" transform="translate(-5.97 -7)"/><path class="cls-2" d="M173.37,134.31h-4.24v-1.57h6v9.09A13.69,13.69,0,0,1,169.5,143c-5.76,0-9.22-3.8-9.22-9.45s3.56-9.45,9.22-9.45a12.87,12.87,0,0,1,4.9.86l-0.21,1.68a9.62,9.62,0,0,0-4.69-1c-4.74,0-7.41,3.35-7.41,7.88s2.59,7.88,7.41,7.88a9.28,9.28,0,0,0,3.88-.65v-6.42Z" transform="translate(-5.97 -7)"/><path class="cls-2" d="M179.81,124.36h4.71c3.25,0,5.37,1.39,5.37,4.74a4.31,4.31,0,0,1-4.06,4.22v0.05c1.47,0.18,1.78,1,2.36,2.2l3.12,7.07h-2l-2.64-6.18c-1-2.36-1.83-2.44-3.56-2.44h-1.49v8.61h-1.81V124.36Zm1.81,8.09h1.91c2.12,0,4.56-.81,4.56-3.35,0-3-2.12-3.17-4.61-3.17h-1.86v6.52Z" transform="translate(-5.97 -7)"/><path class="cls-2" d="M194.32,124.36h9v1.57h-7.15v6.52h6.78V134h-6.78v7h7.46v1.57h-9.27V124.36Z" transform="translate(-5.97 -7)"/><path class="cls-2" d="M207.41,124.36h9v1.57h-7.15v6.52H216V134h-6.78v7h7.46v1.57h-9.27V124.36Z" transform="translate(-5.97 -7)"/><path class="cls-2" d="M231.18,125.93h-5.39v-1.57h12.59v1.57H233v16.71h-1.81V125.93Z" transform="translate(-5.97 -7)"/><path class="cls-2" d="M248.07,124c5.5,0,8.09,4.5,8,9.45-0.05,5.6-2.78,9.45-8,9.45s-8-3.85-8-9.45C240,128.55,242.57,124,248.07,124Zm-6.23,9.45c0,3.88,1.94,7.88,6.23,7.88s6.23-4,6.23-7.88-1.94-7.88-6.23-7.88S241.84,129.63,241.84,133.5Z" transform="translate(-5.97 -7)"/><path class="cls-2" d="M128.65,155.78h8.69v1.57h-6.89v6.52H137v1.57h-6.57v8.61h-1.81V155.78Z" transform="translate(-5.97 -7)"/><path class="cls-2" d="M147.71,155.47c5.5,0,8.09,4.5,8,9.45-0.05,5.6-2.78,9.45-8,9.45s-8-3.85-8-9.45C139.62,160,142.21,155.47,147.71,155.47Zm-6.23,9.45c0,3.88,1.94,7.88,6.23,7.88s6.23-4,6.23-7.88S152,157,147.71,157,141.48,161,141.48,164.92Z" transform="translate(-5.97 -7)"/><path class="cls-2" d="M159.26,155.78h1.81v16.71h7.33v1.57h-9.14V155.78Z" transform="translate(-5.97 -7)"/><path class="cls-2" d="M170.88,155.78h1.81v16.71H180v1.57h-9.14V155.78Z" transform="translate(-5.97 -7)"/><path class="cls-2" d="M189.87,155.47c5.5,0,8.09,4.5,8,9.45-0.05,5.6-2.78,9.45-8,9.45s-8-3.85-8-9.45C181.77,160,184.37,155.47,189.87,155.47Zm-6.23,9.45c0,3.88,1.94,7.88,6.23,7.88s6.23-4,6.23-7.88-1.94-7.88-6.23-7.88S183.63,161,183.63,164.92Z" transform="translate(-5.97 -7)"/><path class="cls-2" d="M218.51,174.06h-2.15l-4.63-16.23h-0.05L207,174.06h-2.17l-5.24-18.28h1.86l4.5,16.23H206l4.69-16.23h2.17L217.44,172h0.05l4.58-16.23h1.73Z" transform="translate(-5.97 -7)"/><path class="cls-2" d="M239.14,155.78h2l7.25,18.28h-1.88l-2-4.9h-9.22l-2,4.9h-1.75Zm0.89,1.73-4,10.08H244Z" transform="translate(-5.97 -7)"/><path class="cls-2" d="M250.87,155.78h1.81v16.71H260v1.57h-9.14V155.78Z" transform="translate(-5.97 -7)"/><path class="cls-2" d="M262.5,155.78h1.81v16.71h7.33v1.57H262.5V155.78Z" transform="translate(-5.97 -7)"/><path class="cls-2" d="M92.63,188.77H87.24V187.2H99.83v1.57H94.44v16.71H92.63V188.77Z" transform="translate(-5.97 -7)"/><path class="cls-2" d="M102.37,187.2h4.71c3.25,0,5.37,1.39,5.37,4.74a4.31,4.31,0,0,1-4.06,4.22v0.05c1.47,0.18,1.78,1,2.36,2.2l3.12,7.07h-2l-2.64-6.18c-1-2.36-1.83-2.44-3.56-2.44h-1.49v8.61h-1.81V187.2Zm1.81,8.09h1.91c2.12,0,4.56-.81,4.56-3.35,0-3-2.12-3.17-4.61-3.17h-1.86v6.52Z" transform="translate(-5.97 -7)"/><path class="cls-2" d="M122.46,187.2h2l7.25,18.28h-1.89l-2-4.9h-9.22l-2,4.9H115Zm0.89,1.73-4,10.08h7.93Z" transform="translate(-5.97 -7)"/><path class="cls-2" d="M134.11,187.2h8.69v1.57h-6.89v6.52h6.57v1.57h-6.57v8.61h-1.81V187.2Z" transform="translate(-5.97 -7)"/><path class="cls-2" d="M145.73,187.2h8.69v1.57h-6.89v6.52h6.57v1.57h-6.57v8.61h-1.81V187.2Z" transform="translate(-5.97 -7)"/><path class="cls-2" d="M157.36,187.2h1.81v18.28h-1.81V187.2Z" transform="translate(-5.97 -7)"/><path class="cls-2" d="M175.95,189.25a9.48,9.48,0,0,0-4.08-.79c-4.74,0-7.41,3.35-7.41,7.88s2.59,7.88,7.41,7.88a9,9,0,0,0,4.08-.79l0.1,1.57a9.87,9.87,0,0,1-4.19.79c-5.76,0-9.22-3.8-9.22-9.45s3.56-9.45,9.22-9.45a11.83,11.83,0,0,1,4.19.68Z" transform="translate(-5.97 -7)"/><path class="cls-2" d="M188,187.2h1.81v16.71h7.33v1.57H188V187.2Z" transform="translate(-5.97 -7)"/><path class="cls-2" d="M205.35,187.2h2l7.25,18.28h-1.88l-2-4.9h-9.22l-2,4.9h-1.75Zm0.89,1.73-4,10.08h7.93Z" transform="translate(-5.97 -7)"/><path class="cls-2" d="M233.4,205.48h-2.15l-4.63-16.23h-0.05l-4.71,16.23h-2.17l-5.24-18.28h1.86l4.5,16.23h0.05l4.69-16.23h2.17l4.61,16.23h0.05L237,187.2h1.73Z" transform="translate(-5.97 -7)"/><path class="cls-2" d="M240.67,203.15a7.2,7.2,0,0,0,4,1.07c2.25,0,4.11-1.15,4.11-3.74,0-3.59-8.38-4-8.38-8.82,0-2.93,2.57-4.77,5.79-4.77a10.89,10.89,0,0,1,3.59.6l-0.29,1.65a7.44,7.44,0,0,0-3.33-.68c-1.89,0-4,.79-4,3.14,0,3.67,8.38,3.69,8.38,9,0,3.69-3.17,5.16-6,5.16a10.43,10.43,0,0,1-4.14-.79Z" transform="translate(-5.97 -7)"/><path class="cls-2" d="M267.12,187.2h2l7.25,18.28h-1.88l-2-4.9h-9.22l-2,4.9h-1.75Zm0.89,1.73L264,199H272Z" transform="translate(-5.97 -7)"/><path class="cls-2" d="M278.77,187.2H281l9.3,16.08h0.05V187.2h1.81v18.28h-2.43l-9.14-15.76h-0.05v15.76h-1.81V187.2Z" transform="translate(-5.97 -7)"/><path class="cls-2" d="M296.31,187.2h4.53c6.55,0,9.14,3.77,9.14,9.11,0,6.62-4.42,9.16-10.47,9.16h-3.19V187.2Zm1.81,16.71h1.49c5.18,0,8.56-2.09,8.56-7.7s-3.33-7.44-7.41-7.44h-2.64v15.13Z" transform="translate(-5.97 -7)"/><path class="cls-2" d="M98.39,220.2H93v-1.57h12.59v1.57H100.2V236.9H98.39V220.2Z" transform="translate(-5.97 -7)"/><path class="cls-2" d="M115.28,218.31c5.5,0,8.09,4.5,8,9.45-0.05,5.6-2.78,9.45-8,9.45s-8-3.85-8-9.45C107.19,222.81,109.78,218.31,115.28,218.31ZM109,227.76c0,3.88,1.94,7.88,6.23,7.88s6.23-4,6.23-7.88-1.94-7.88-6.23-7.88S109,223.89,109,227.76Z" transform="translate(-5.97 -7)"/><path class="cls-2" d="M134.26,218.63h4.5c3.43,0,5.66,1.73,5.66,5.18s-2.57,5.18-5.84,5.18h-2.51v7.91h-1.81V218.63Zm1.81,8.8h1.26c2.72,0,5.29-.31,5.29-3.61A3.28,3.28,0,0,0,139,220.2h-2.93v7.23Z" transform="translate(-5.97 -7)"/><path class="cls-2" d="M147.41,218.63h4.71c3.25,0,5.37,1.39,5.37,4.74a4.31,4.31,0,0,1-4.06,4.22v0.05c1.47,0.18,1.78,1,2.36,2.2l3.12,7.07h-2l-2.64-6.18c-1-2.36-1.83-2.43-3.56-2.43h-1.49v8.61h-1.81V218.63Zm1.81,8.09h1.91c2.12,0,4.56-.81,4.56-3.35,0-3-2.12-3.17-4.61-3.17h-1.86v6.52Z" transform="translate(-5.97 -7)"/><path class="cls-2" d="M169.11,218.31c5.5,0,8.09,4.5,8,9.45-0.05,5.6-2.78,9.45-8,9.45s-8-3.85-8-9.45C161,222.81,163.62,218.31,169.11,218.31Zm-6.23,9.45c0,3.88,1.94,7.88,6.23,7.88s6.23-4,6.23-7.88-1.94-7.88-6.23-7.88S162.88,223.89,162.88,227.76Z" transform="translate(-5.97 -7)"/><path class="cls-2" d="M193.36,220.67a9.48,9.48,0,0,0-4.08-.79c-4.74,0-7.41,3.35-7.41,7.88s2.59,7.88,7.41,7.88a9,9,0,0,0,4.08-.79l0.1,1.57a9.87,9.87,0,0,1-4.19.79c-5.76,0-9.22-3.8-9.22-9.45s3.56-9.45,9.22-9.45a11.83,11.83,0,0,1,4.19.68Z" transform="translate(-5.97 -7)"/><path class="cls-2" d="M198.28,218.63h9v1.57h-7.15v6.52h6.78v1.57h-6.78v7h7.46v1.57h-9.27V218.63Z" transform="translate(-5.97 -7)"/><path class="cls-2" d="M211.37,218.63h9v1.57h-7.15v6.52H220v1.57h-6.78v7h7.46v1.57h-9.27V218.63Z" transform="translate(-5.97 -7)"/><path class="cls-2" d="M224.31,218.63h4.53c6.55,0,9.14,3.77,9.14,9.11,0,6.62-4.42,9.16-10.47,9.16h-3.19V218.63Zm1.81,16.71h1.49c5.18,0,8.56-2.09,8.56-7.7s-3.33-7.44-7.41-7.44h-2.64v15.13Z" transform="translate(-5.97 -7)"/><path class="cls-2" d="M266.15,236.9H264l-4.63-16.23h-0.05L254.6,236.9h-2.17l-5.24-18.28h1.86l4.5,16.23h0.05l4.69-16.23h2.17l4.61,16.23h0.05l4.58-16.23h1.73Z" transform="translate(-5.97 -7)"/><path class="cls-2" d="M273.69,218.63h1.81V236.9h-1.81V218.63Z" transform="translate(-5.97 -7)"/><path class="cls-2" d="M283.14,220.2h-5.39v-1.57h12.59v1.57h-5.39V236.9h-1.81V220.2Z" transform="translate(-5.97 -7)"/><path class="cls-2" d="M292.88,218.63h1.81v8.09h9.24v-8.09h1.81V236.9h-1.81v-8.61h-9.24v8.61h-1.81V218.63Z" transform="translate(-5.97 -7)"/><path class="cls-2" d="M162.65,252.09a9.48,9.48,0,0,0-4.08-.79c-4.74,0-7.41,3.35-7.41,7.88s2.59,7.88,7.41,7.88a9,9,0,0,0,4.08-.79l0.1,1.57a9.87,9.87,0,0,1-4.19.79c-5.76,0-9.22-3.8-9.22-9.45s3.56-9.45,9.22-9.45a11.83,11.83,0,0,1,4.19.68Z" transform="translate(-5.97 -7)"/><path class="cls-2" d="M173.15,250h2l7.25,18.28h-1.89l-2-4.9h-9.22l-2,4.9h-1.75Zm0.89,1.73-4,10.08H178Z" transform="translate(-5.97 -7)"/><path class="cls-2" d="M198.16,261.93c0,5.39-4,6.7-6.62,6.7s-6.62-1.31-6.62-6.7V250h1.81v11.89c0,3,1.65,5.13,4.82,5.13s4.82-2.15,4.82-5.13V250h1.81v11.89Z" transform="translate(-5.97 -7)"/><path class="cls-2" d="M205.91,251.62h-5.39V250h12.59v1.57h-5.39v16.71h-1.81V251.62Z" transform="translate(-5.97 -7)"/><path class="cls-2" d="M215.36,250h1.81v18.28h-1.81V250Z" transform="translate(-5.97 -7)"/><path class="cls-2" d="M228.61,249.73c5.5,0,8.09,4.5,8,9.45-0.05,5.6-2.78,9.45-8,9.45s-8-3.85-8-9.45C220.52,254.23,223.11,249.73,228.61,249.73Zm-6.23,9.45c0,3.88,1.94,7.88,6.23,7.88s6.23-4,6.23-7.88-1.94-7.88-6.23-7.88S222.38,255.31,222.38,259.18Z" transform="translate(-5.97 -7)"/><path class="cls-2" d="M240.08,250h2.28l9.3,16.08h0.05V250h1.81v18.28h-2.43l-9.14-15.76h-0.05v15.76h-1.81V250Z" transform="translate(-5.97 -7)"/></svg>