<svg id="Layer_1" data-name="Layer 1" xmlns="http://www.w3.org/2000/svg" viewBox="0 0 285.94 336.09"><defs><style>.cls-1{fill:#e5e5e5;}</style></defs><title>sign-box</title><path class="cls-1" d="M274.42,4.7H20.48c-8.82,0-16,6.63-16,14.77V326c0,8.15,7.18,14.77,16,14.77H274.42c8.82,0,16-6.63,16-14.77V19.47C290.42,11.32,283.24,4.7,274.42,4.7Zm8,321.31c0,4.06-3.6,7.39-8,7.39H20.48c-4.4,0-8-3.33-8-7.39V19.47c0-4.06,3.6-7.39,8-7.39H274.42c4.4,0,8,3.32,8,7.39V326Zm-8-311.71H20.48a5.4,5.4,0,0,0-5.6,5.17V326a5.4,5.4,0,0,0,5.6,5.17H274.42A5.4,5.4,0,0,0,280,326V19.47A5.4,5.4,0,0,0,274.42,14.3Z" transform="translate(-4.48 -4.7)"/></svg>