<svg id="Layer_1" data-name="Layer 1" xmlns="http://www.w3.org/2000/svg" viewBox="0 0 658.39 658.39"><defs><style>.cls-1{fill:#f36e54;}.cls-2{fill:#656765;}</style></defs><title>stop</title><path class="cls-1" d="M452.62,53.39l-236.2,1.13L50.22,222.35l1.13,236.21L219.18,624.75l236.2-1.13,166.2-167.84-1.13-236.2Zm211.29,161c0-7.18-4.24-17.18-9.33-22.23L479.69,19c-5.1-5-15.14-9.15-22.31-9.12L211.25,11.07c-7.17,0-17.17,4.23-22.23,9.33L15.82,195.28c-5,5.1-9.15,15.14-9.11,22.32L7.89,463.73c0,7.18,4.23,17.18,9.33,22.23l174.89,173.2c5.1,5,15.14,9.15,22.31,9.12l246.13-1.18c7.18,0,17.18-4.23,22.23-9.33L656,482.87c5-5.1,9.15-15.14,9.11-22.32ZM627.75,461.91L461.55,629.75,459,632.31l-3.6,0-236.19,1.12-3.59,0-2.57-2.54L45.22,464.73l-2.56-2.54,0-3.6-1.13-236.2,0-3.59L44,216.23,210.24,48.41l2.53-2.56,3.61,0,236.2-1.14,3.59,0,2.57,2.54,167.82,166.2,2.56,2.54,0,3.61,1.13,236.2,0,3.59Z" transform="translate(-6.7 -9.87)"/><path class="cls-2" d="M94.93,408.68c9.77,6.19,21.19,9.76,36.67,9.76,20.48,0,37.39-10.48,37.39-34.05,0-32.63-76.2-36.68-76.2-80.25,0-26.67,23.33-43.34,52.63-43.34,8.1,0,21.2,1.19,32.63,5.47l-2.62,15c-7.38-4-19.05-6.19-30.25-6.19-17.15,0-36,7.15-36,28.58,0,33.34,76.21,33.58,76.21,82.16,0,33.58-28.82,46.91-54.54,46.91-16.2,0-28.82-3.33-37.63-7.14Z" transform="translate(-6.7 -9.87)"/><path class="cls-2" d="M247.06,277.94H198V263.65H312.55v14.29H263.49V429.88H247.06V277.94Z" transform="translate(-6.7 -9.87)"/><path class="cls-2" d="M390.07,260.79c50,0,73.59,41,73.11,86-0.48,51-25.24,86-73.11,86s-72.64-35-73.11-86C316.48,301.75,340.06,260.79,390.07,260.79Zm-56.68,86c0,35.24,17.62,71.68,56.68,71.68s56.69-36.44,56.69-71.68-17.62-71.69-56.69-71.69S333.39,311.52,333.39,346.77Z" transform="translate(-6.7 -9.87)"/><path class="cls-2" d="M493.45,263.65h41c31.2,0,51.44,15.72,51.44,47.16,0,31-23.34,47.15-53.11,47.15H509.89v71.92H493.45V263.65Zm16.43,80h11.43c24.77,0,48.1-2.86,48.1-32.87,0-21-11.91-32.87-32.86-32.87H509.89v65.73Z" transform="translate(-6.7 -9.87)"/></svg>