<svg id="Layer_1" data-name="Layer 1" xmlns="http://www.w3.org/2000/svg" viewBox="0 0 786.05 786.05"><defs><style>.cls-1{fill:#fbbb18;}.cls-2{fill:#656765;}</style></defs><title>turn-left</title><path class="cls-1" d="M410.18,46.41a11.43,11.43,0,0,0-16.08,0L46.56,394a11.38,11.38,0,0,0,0,16.09L394.1,757.59a11.43,11.43,0,0,0,16.08,0L757.72,410a11.44,11.44,0,0,0,0-16.09ZM781.86,369.82L434.32,22.29a45.58,45.58,0,0,0-64.37,0L22.41,369.82a45.58,45.58,0,0,0,0,64.36L370,781.72a45.58,45.58,0,0,0,64.37,0L781.86,434.18A45.56,45.56,0,0,0,781.86,369.82Zm-16.09,48.27L418.23,765.63a22.83,22.83,0,0,1-32.18,0L38.5,418.09a22.83,22.83,0,0,1,0-32.18L386,38.37a22.83,22.83,0,0,1,32.18,0L765.77,385.91A22.83,22.83,0,0,1,765.77,418.09Z" transform="translate(-9.12 -8.98)"/><path class="cls-2" d="M248.83,334.41l113.28-56.64v38.37h7.1a136.18,136.18,0,0,1,136.56,131.6c0.06,1.8.09,87.7,0.09,88.68v7.19H467.5v-7.19c0-4.57,0-85.28-.09-88.1a98.3,98.3,0,0,0-98.23-93.82h-7.07v36.54Z" transform="translate(-9.12 -8.98)"/><path class="cls-2" d="M316.64,182.52H301.71v-8.21H342v8.21H327.08v43.87H316.64V182.52Z" transform="translate(-9.12 -8.98)"/><path class="cls-2" d="M350.14,174.31h10.45v30.07c0,8.88,2.83,14.7,10.82,14.7s10.82-5.82,10.82-14.7V174.31h10.45v33.28c0,14-7.91,19.7-21.26,19.7s-21.27-5.75-21.27-19.7V174.31Z" transform="translate(-9.12 -8.98)"/><path class="cls-2" d="M405.35,174.31h11.27c11.19,0,24.55-.37,24.55,14.1a11.92,11.92,0,0,1-10.74,12.09v0.15c2.83,0.22,4.48,3.06,5.52,5.37l8.36,20.37H432.66l-6.27-16.27c-1.49-3.88-2.84-5.37-7.24-5.37H415.8v21.64H405.35V174.31Zm10.45,22.24h3.43c5.15,0,11-.75,11-7.24,0-6.27-5.82-6.79-11-6.79H415.8v14Z" transform="translate(-9.12 -8.98)"/><path class="cls-2" d="M453.18,174.31H466l19.85,38.95H486V174.31h10v52.08H483.25l-19.92-38.95h-0.15v38.95h-10V174.31Z" transform="translate(-9.12 -8.98)"/><path class="cls-2" d="M336.87,592.19h9.57v44.56H365v8.34h-28.1V592.19Z" transform="translate(-9.12 -8.98)"/><path class="cls-2" d="M376.18,592.19h28.17v8.34h-18.6v13h17v8.33h-17v14.85h18.73v8.34H376.18V592.19Z" transform="translate(-9.12 -8.98)"/><path class="cls-2" d="M419.32,592.19h26.53v8.34h-17v13H445v8.33H428.89v23.19h-9.57V592.19Z" transform="translate(-9.12 -8.98)"/><path class="cls-2" d="M467.32,600.53H453.64v-8.34h36.92v8.34H476.89v44.56h-9.57V600.53Z" transform="translate(-9.12 -8.98)"/></svg>