<svg id="Layer_1" data-name="Layer 1" xmlns="http://www.w3.org/2000/svg" viewBox="0 0 786.05 786.05"><defs><style>.cls-1{fill:#fbbb18;}.cls-2{fill:#656765;}</style></defs><title>turn-right</title><path class="cls-1" d="M410.18,46.41a11.43,11.43,0,0,0-16.08,0L46.56,394a11.38,11.38,0,0,0,0,16.09L394.1,757.59a11.43,11.43,0,0,0,16.08,0L757.72,410a11.44,11.44,0,0,0,0-16.09ZM781.86,369.82L434.32,22.29a45.58,45.58,0,0,0-64.37,0L22.41,369.82a45.58,45.58,0,0,0,0,64.36L370,781.72a45.58,45.58,0,0,0,64.37,0L781.86,434.18A45.56,45.56,0,0,0,781.86,369.82Zm-16.09,48.27L418.23,765.63a22.83,22.83,0,0,1-32.18,0L38.5,418.09a22.83,22.83,0,0,1,0-32.18L386,38.37a22.83,22.83,0,0,1,32.18,0L765.77,385.91A22.83,22.83,0,0,1,765.77,418.09Z" transform="translate(-9.12 -8.98)"/><path class="cls-2" d="M563.86,325.41L450.58,268.77v38.37h-7.1a136.18,136.18,0,0,0-136.56,131.6c-0.06,1.8-.09,87.7-0.09,88.68v7.19h38.36v-7.19c0-4.57,0-85.28.09-88.1a98.3,98.3,0,0,1,98.23-93.82h7.07v36.54Z" transform="translate(-9.12 -8.98)"/><path class="cls-2" d="M321.92,175.52H307v-8.21h40.29v8.21H332.36v43.87H321.92V175.52Z" transform="translate(-9.12 -8.98)"/><path class="cls-2" d="M353.55,167.31H364v30.07c0,8.88,2.83,14.7,10.82,14.7s10.82-5.82,10.82-14.7V167.31h10.45v33.28c0,14-7.91,19.7-21.26,19.7s-21.27-5.75-21.27-19.7V167.31Z" transform="translate(-9.12 -8.98)"/><path class="cls-2" d="M406.9,167.31h11.27c11.19,0,24.55-.37,24.55,14.1A11.92,11.92,0,0,1,432,193.5v0.15c2.83,0.22,4.48,3.06,5.52,5.37l8.36,20.37H434.21l-6.27-16.27c-1.49-3.88-2.84-5.37-7.24-5.37h-3.36v21.64H406.9V167.31Zm10.45,22.24h3.43c5.15,0,11-.75,11-7.24,0-6.27-5.82-6.79-11-6.79h-3.43v14Z" transform="translate(-9.12 -8.98)"/><path class="cls-2" d="M452.87,167.31H465.7l19.85,38.95h0.15V167.31h10v52.08H482.94L463,180.44h-0.15v38.95h-10V167.31Z" transform="translate(-9.12 -8.98)"/><path class="cls-2" d="M309.77,599.19h10.32c10.26,0,22.5-.38,22.5,14.32,0,6.21-3.76,11.37-9.85,12.28v0.15c2.6,0.23,4.1,3.11,5.06,5.46l7.66,20.69H334.79L329,635.56c-1.37-3.94-2.6-5.46-6.63-5.46h-3.08v22h-9.57V599.19Zm9.57,22.58h3.15c4.72,0,10.12-.76,10.12-7.35,0-6.37-5.33-6.9-10.12-6.9h-3.15v14.25Z" transform="translate(-9.12 -8.98)"/><path class="cls-2" d="M351.54,599.19h9.57v52.89h-9.57V599.19Z" transform="translate(-9.12 -8.98)"/><path class="cls-2" d="M408.63,609.42a28.64,28.64,0,0,0-12.31-2.8c-11.15,0-17.3,8.33-17.3,19.17s6,18.87,16.21,18.87a23.51,23.51,0,0,0,6.29-.76V630.11H391.4v-8.34h19.28v28.49A54.86,54.86,0,0,1,395.23,653c-15.45,0-26.19-8.56-26.19-26.45,0-18.11,10-28.26,26.19-28.26a42.88,42.88,0,0,1,14,2.2Z" transform="translate(-9.12 -8.98)"/><path class="cls-2" d="M420.73,599.19h9.57v21.37h19.15V599.19H459v52.89h-9.57V628.9H430.3v23.19h-9.57V599.19Z" transform="translate(-9.12 -8.98)"/><path class="cls-2" d="M478.77,607.53H465.1v-8.34H502v8.34H488.34v44.56h-9.57V607.53Z" transform="translate(-9.12 -8.98)"/></svg>