<svg id="Layer_1" data-name="Layer 1" xmlns="http://www.w3.org/2000/svg" viewBox="0 0 786.05 786.05"><defs><style>.cls-1{fill:#fbbb18;}.cls-2{fill:#656765;}</style></defs><title>u-turn</title><path class="cls-1" d="M410.18,46.41a11.43,11.43,0,0,0-16.08,0L46.56,394a11.38,11.38,0,0,0,0,16.09L394.1,757.59a11.43,11.43,0,0,0,16.08,0L757.72,410a11.44,11.44,0,0,0,0-16.09ZM781.86,369.82L434.32,22.29a45.58,45.58,0,0,0-64.37,0L22.41,369.82a45.58,45.58,0,0,0,0,64.36L370,781.72a45.58,45.58,0,0,0,64.37,0L781.86,434.18A45.56,45.56,0,0,0,781.86,369.82Zm-16.09,48.27L418.23,765.63a22.83,22.83,0,0,1-32.18,0L38.5,418.09a22.83,22.83,0,0,1,0-32.18L386,38.37a22.83,22.83,0,0,1,32.18,0L765.77,385.91A22.83,22.83,0,0,1,765.77,418.09Z" transform="translate(-9.12 -8.98)"/><path class="cls-2" d="M317.13,531.38c-0.12-2.1-.2-179.55-0.2-181.7,0-27,9.77-51,25-68.07s35.34-26.87,57.34-26.9,42.06,9.87,57.34,26.9,25,41.09,25,68.07c0,2.15-.08,94.85-0.2,97h43.89c0.09-2.11.15-94.83,0.15-97,0-37.58-13.56-72-36.08-97.24s-54.5-41.59-90.06-41.56-67.61,16.3-90.05,41.56-36.08,59.66-36.09,97.24c0,2.13.06,179.59,0.15,181.7h43.89Z" transform="translate(-9.12 -8.98)"/><polygon class="cls-2" points="494.11 562.34 565.45 437.17 423.24 437.17 494.11 562.34"/></svg>