<svg id="Layer_1" data-name="Layer 1" xmlns="http://www.w3.org/2000/svg" viewBox="0 0 589.31 620.14"><defs><style>.cls-1{fill:#fff;}</style></defs><title>footsteps</title><path class="cls-1" d="M571,574.71a215.93,215.93,0,0,1,16.06-17.52c14.18-30.64-40.52-61.28-111.43-65.18s-93.2,34.54-58.75,51.81c23,11.51,39.6,22.78,42.75,31.15Z"/><path class="cls-1" d="M575,585.38l-113,1c-16.24,8.65-21.74,32.19,45.38,33.77C604,619.65,573.54,587.91,575,585.38Z"/><path class="cls-1" d="M18.31,494.36A215.93,215.93,0,0,0,2.25,476.84c-14.18-30.64,40.52-61.28,111.43-65.18s93.2,34.54,58.75,51.81c-23,11.51-39.6,22.78-42.75,31.15Z"/><path class="cls-1" d="M14.34,505l113,1c16.24,8.65,21.74,32.19-45.38,33.77C-14.65,539.3,15.77,507.55,14.34,505Z"/><path class="cls-1" d="M511.84,381.46A190,190,0,0,1,526,366c12.48-27-35.66-53.93-98.08-57.37s-82,30.4-51.71,45.6c20.21,10.13,34.86,20,37.63,27.42Z"/><path class="cls-1" d="M515.33,390.85l-99.47.87c-14.3,7.62-19.14,28.33,39.94,29.72C540.85,421,514.07,393.07,515.33,390.85Z"/><path class="cls-1" d="M101.87,302.86a190,190,0,0,0-14.13-15.42c-12.48-27,35.66-53.93,98.08-57.37s82,30.4,51.71,45.6c-20.21,10.13-34.86,20-37.63,27.42Z"/><path class="cls-1" d="M98.38,312.25l99.47,0.87c14.3,7.62,19.14,28.33-39.94,29.72C72.87,342.42,99.64,314.48,98.38,312.25Z"/><path class="cls-1" d="M462.89,229.68a118.15,118.15,0,0,1,9.26-10.8c7.49-19-28.2-38.86-72.82-42.1s-56.84,20.61-34.46,31.82c14.92,7.47,25.86,14.72,28.22,20Z"/><path class="cls-1" d="M465.87,236.41l-70.79-.64c-9.79,5.24-12.16,19.93,30,21.67C485.6,258.22,465.09,238,465.87,236.41Z"/><path class="cls-1" d="M172.53,153.67a123.78,123.78,0,0,0-9.47-10.7c-8-18.79,26.41-38,70.18-40.79s56.58,20.73,35,31.57C253.78,141,243.26,148,241.12,153.18Z"/><path class="cls-1" d="M169.83,160.26l69.59,0c9.8,5.24,12.63,19.7-28.75,21.06C151.16,181.54,170.65,161.81,169.83,160.26Z"/><path class="cls-1" d="M453.81,91.56a119.53,119.53,0,0,1,9-10.07c7.79-17.65-24.21-35.53-65.23-38s-53.38,19.65-33.25,29.74c13.42,6.72,23.18,13.28,25.11,18.13Z"/><path class="cls-1" d="M456.24,97.73L391,97.94c-9.27,4.95-12.13,18.52,26.66,19.65C473.43,117.62,455.44,99.19,456.24,97.73Z"/><path class="cls-1" d="M239.71,40.46a76,76,0,0,0-6.25-7.88C229,18.56,256.59,3.37,289.87.35s41,14.48,23.73,23.11c-11.49,5.75-20,11.27-22.07,15.23Z"/><path class="cls-1" d="M237.12,45.49L289.64,44c7,3.75,7.87,14.61-23.48,16.49C221.23,61.94,237.61,46.64,237.12,45.49Z"/></svg>