<svg id="Layer_1" data-name="Layer 1" xmlns="http://www.w3.org/2000/svg" xmlns:xlink="http://www.w3.org/1999/xlink" viewBox="0 0 1180.72 578.64"><defs><style>.cls-1{fill:none;}.cls-2{clip-path:url(#clip-path);}.cls-3{fill:#fff;}</style><clipPath id="clip-path" transform="translate(0 -10.4)"><polygon class="cls-1" points="1180.72 587.97 644.15 39.77 750.72 33.39 750.72 21.9 578.64 0 404.72 33.39 406.72 44.09 514.88 38.96 0 589.04 1180.72 587.97"/></clipPath></defs><title>forward-arrow-stripes</title><g class="cls-2"><polygon class="cls-3" points="0 578.64 1180.72 577.56 1107.98 478.66 83.38 480.85 0 578.64"/><polygon class="cls-3" points="131.91 436.13 1045.07 436.13 983.38 376.75 184.67 378.91 131.91 436.13"/><polygon class="cls-3" points="233.92 328.16 940.77 328.16 896.77 282.82 277.89 282.82 233.92 328.16"/><polygon class="cls-3" points="314.82 242.87 858.05 243.96 823.38 208.31 344.72 209.4 314.82 242.87"/><polygon class="cls-3" points="372.86 179.17 796.72 180.25 765.38 152.18 399.24 151.1 372.86 179.17"/><polygon class="cls-3" points="417.38 130.59 753.77 131.67 730.9 110.07 437.94 106.83 417.38 130.59"/><polygon class="cls-3" points="451.38 91.72 705.27 91.72 694.05 74.72 471.35 75.53 451.38 91.72"/><polygon class="cls-3" points="479.38 61.76 682.05 61.49 672.05 49.88 490.05 49.88 479.38 61.76"/><polygon class="cls-3" points="505.21 38.82 653.83 38.55 644.15 29.37 514.88 28.56 505.21 38.82"/><polygon class="cls-3" points="573.88 0 420.29 22.99 740.26 22.99 573.88 0"/></g></svg>