<svg id="Layer_1" data-name="Layer 1" xmlns="http://www.w3.org/2000/svg" viewBox="0 0 600.97 706.38"><defs><style>.cls-1{fill:#e5e5e5;}</style></defs><title>frosty-box</title><path class="cls-1" d="M591.87,42.77H58.15c-6.49,0-11.77,4.87-11.77,10.86V697.91c0,6,5.28,10.87,11.77,10.87H591.87c6.49,0,11.77-4.87,11.77-10.87V53.63C603.64,47.64,598.36,42.77,591.87,42.77Zm0-20.18H58.14c-18.54,0-33.62,13.93-33.62,31.05V697.91C24.52,715,39.61,729,58.14,729H591.87c18.54,0,33.62-13.93,33.62-31.05V53.63C625.49,36.51,610.41,22.58,591.87,22.58Zm16.81,675.33c0,8.54-7.56,15.53-16.81,15.53H58.15c-9.25,0-16.82-7-16.82-15.53V53.63c0-8.54,7.56-15.52,16.82-15.52H591.87c9.25,0,16.81,7,16.81,15.52V697.91Z" transform="translate(-24.52 -22.58)"/></svg>