<svg id="Layer_1" data-name="Layer 1" xmlns="http://www.w3.org/2000/svg" xmlns:xlink="http://www.w3.org/1999/xlink" viewBox="0 0 622.47 627.01"><defs><style>.cls-1{fill:none;stroke:#fff;stroke-miterlimit:10;}.cls-2,.cls-5,.cls-6{fill:#fff;}.cls-3{clip-path:url(#clip-path);}.cls-4{fill:#dededd;}.cls-5{opacity:0.22;}.cls-6{opacity:0.47;}.cls-7{fill:#c6deaa;}.cls-8{fill:#595959;}.cls-9{fill:#febd11;}</style><clipPath id="clip-path" transform="translate(-13 -15.91)"><path class="cls-1" d="M324.23,617.93a286.23,286.23,0,0,1-202.4-488.63,286.23,286.23,0,0,1,404.8,404.8A284.36,284.36,0,0,1,324.23,617.93Z"/></clipPath></defs><title>logo_map</title><circle class="cls-2" cx="311.23" cy="315.78" r="311.23"/><g class="cls-3"><polygon class="cls-4" points="466.92 371.18 466.82 351.67 459.92 372.49 436.67 372.49 426.61 349.17 422.71 372.42 283.4 373.44 278.34 373.42 276.82 443.74 493.52 443.32 489.9 373.44 466.92 371.18"/><path class="cls-4" d="M289.82,330.11c0,25.32-19,45.85-42.47,45.85s-47.95-20.45-47.95-45.77,24.49-45.92,47.95-45.92S289.82,304.79,289.82,330.11Z" transform="translate(-13 -15.91)"/><ellipse class="cls-5" cx="312.08" cy="407.29" rx="1.6" ry="1.99"/><ellipse class="cls-6" cx="312.08" cy="407.29" rx="0.88" ry="1.09"/><polygon class="cls-4" points="345.45 258.03 396.07 258.03 381.48 160.54 313.68 201.03 345.45 258.03"/><polygon class="cls-4" points="331.73 258.03 309.83 209.28 255.84 209.28 255.84 258.94 274.37 258.03 331.73 258.03"/><polygon class="cls-4" points="241.64 211.8 239.05 253.98 197.5 262.44 182.3 255.94 182.3 217.53 241.64 211.8"/><polygon class="cls-4" points="172.65 221.6 111.78 246.74 112.4 263.98 155.08 264.38 172.37 255.28 172.65 221.6"/><polygon class="cls-4" points="255.84 198.27 302.05 196.65 381.48 150.04 329.34 143.37 255.84 147.61 255.84 198.27"/><polygon class="cls-4" points="241.63 201.03 183.41 205.89 158.71 144.81 240.96 149.21 241.63 201.03"/><polygon class="cls-7" points="135.95 224.18 104.41 181.16 148.99 153.04 173.4 206.94 135.95 224.18"/><polygon class="cls-4" points="127.22 226.75 96.05 189.67 25 208.53 98.54 239.85 127.22 226.75"/><polygon class="cls-4" points="93.15 246.13 25 223.53 0 274.61 93.15 246.13"/><polygon class="cls-4" points="34.02 193.53 87.5 179.14 87.5 121.54 34.02 193.53"/><polygon class="cls-4" points="101.72 170.07 147.08 139.48 121.2 69.29 96.05 97.54 101.72 170.07"/><polygon class="cls-4" points="137.99 69.29 160.91 133.54 238.59 138.6 235.66 84.04 137.99 69.29"/><polygon class="cls-4" points="135.02 58.88 230.59 73.29 218.71 22.95 135.02 58.88"/><polygon class="cls-4" points="244.23 73.32 230.16 29.55 367.36 0 329.87 66.58 244.23 73.32"/><polygon class="cls-4" points="247.52 82.81 325.08 76.54 325.08 133.54 252.1 139.23 247.52 82.81"/><polygon class="cls-7" points="338.55 76.54 335.4 136.27 387.48 144.04 402.54 85.73 338.55 76.54"/><polygon class="cls-4" points="372.98 18.95 340.07 68.94 405.99 77.35 430.73 29.55 372.98 18.95"/><polygon class="cls-4" points="413.77 89.67 396.07 146.94 459 149.61 459 88.27 413.77 89.67"/><polygon class="cls-4" points="484.55 76.54 416.56 80.21 437.96 36.8 484.55 76.54"/><polygon class="cls-4" points="467.17 86.99 469.42 150.71 535.4 117.61 500.68 81.59 467.17 86.99"/><polygon class="cls-4" points="391.98 157.54 459 160.54 484.55 213.6 469.49 262.1 406.07 258.11 391.98 157.54"/><polygon class="cls-4" points="481.47 262.44 529.89 242.16 523.29 210.29 495.51 218.76 481.47 262.44"/><polygon class="cls-4" points="471.78 160.54 494.14 211.31 563.99 181.16 546.47 121.54 471.78 160.54"/><polygon class="cls-4" points="531.13 205.29 539.1 241.16 600.35 215.32 591.93 181.16 531.13 205.29"/><polygon class="cls-4" points="493.98 270.27 532.21 252.17 542.66 332.02 493.98 331.61 493.98 270.27"/><polygon class="cls-4" points="493.98 362.8 493.98 340.53 541.97 340.53 540.07 408.27 493.98 362.8"/><polygon class="cls-4" points="550.73 339.61 550.34 411.25 588.07 432.26 608.4 332.94 550.73 339.61"/><polygon class="cls-4" points="550.73 329.61 547.12 289.71 603.23 279.65 609.47 321.48 550.73 329.61"/><polygon class="cls-4" points="539.49 250.46 597.47 229.37 609.47 268.35 545.05 281.81 539.49 250.46"/><polygon class="cls-4" points="99.29 364.07 12.21 402.37 0.04 320.56 102.98 325.41 99.29 364.07"/><polygon class="cls-4" points="9.5 311.55 102.73 317.77 102.73 254.27 17 279.65 9.5 311.55"/><polygon class="cls-4" points="25 408.39 98.68 380.35 92.29 440.92 43.77 447.02 25 408.39"/><polygon class="cls-4" points="80 501.02 102.35 448.94 133.69 448.94 121.02 562.13 80 501.02"/><polygon class="cls-4" points="136.58 529.52 217.38 529.52 190.46 450.27 145.99 450.27 136.58 529.52"/><polygon class="cls-4" points="137.99 543.69 224.4 543.69 232.26 616.9 128.1 553.52 137.99 543.69"/><polygon class="cls-7" points="240.92 541.66 246.57 612.96 314.75 622.1 297.79 543.69 240.92 541.66"/><polygon class="cls-4" points="311.2 543.69 325.08 612 408.54 602.01 408.54 550.26 311.2 543.69"/><polygon class="cls-4" points="422.71 550.52 430.41 594.01 489.48 550.52 422.71 550.52"/><polygon class="cls-4" points="402.69 532.68 356.36 529.66 334.57 453.02 380.63 453.02 402.69 532.68"/><polygon class="cls-4" points="338.55 529.52 325.08 453.02 287.95 491.27 287.95 529.52 338.55 529.52"/><polygon class="cls-4" points="209.89 453.02 235.66 529.52 274.37 529.52 274.37 481.52 237.47 453.02 209.89 453.02"/><polygon class="cls-7" points="255.84 453.02 287.95 477.02 311.2 453.02 255.84 453.02"/><polygon class="cls-4" points="103.61 440.92 109.24 373.29 237.47 373.87 267.61 372.96 266.74 443.46 103.61 440.92"/><polygon class="cls-7" points="391.98 453.02 471.48 453.02 484.55 535.52 422.71 535.52 391.98 453.02"/><polygon class="cls-4" points="484.55 453.02 502.23 543.69 547.12 498.36 508.76 453.02 484.55 453.02"/><polygon class="cls-4" points="517.98 447.02 555.47 491.27 578.29 445.52 540.73 422.27 517.98 447.02"/><polygon class="cls-4" points="506.6 440.03 532.97 415.52 498.96 380.68 506.6 440.03"/><polygon class="cls-8" points="241.66 317.94 224.47 355.41 219.68 313.04 236.87 275.57 241.66 317.94"/><polygon class="cls-9" points="241.66 317.94 219.68 313.04 236.87 275.57 241.66 317.94"/><path class="cls-8" d="M267.18,288.45a52.41,52.41,0,0,0-11.63-4.85A39.41,39.41,0,0,0,245.42,281l-3.92-3.64-3.4,3.65a37.35,37.35,0,0,0-10.52,2.89,45,45,0,0,0-10,4.61L197.86,286l3.89,19.26a45.15,45.15,0,0,0-4.65,13.27,31.55,31.55,0,0,0-1.31,8l-3.4,3.65,3.92,3.64a29.13,29.13,0,0,0,1.51,5.56,52.24,52.24,0,0,0,7.42,16.45l-1.1,18.49,18-2.4a51.92,51.92,0,0,0,23,7.37l3.81,3.55,3.3-3.55a46,46,0,0,0,22.14-7.42l18.22,2.33L289,356a45.67,45.67,0,0,0,5.34-18.38,24.27,24.27,0,0,0,.4-3.91l3.4-3.65-3.92-3.64a28.67,28.67,0,0,0-1.41-5.33,52.37,52.37,0,0,0-7.55-16.16l1.14-19ZM277,359.6c-15.19,16.33-41.7,16.37-59.21.08s-19.39-42.73-4.2-59.06,41.7-16.36,59.21-.08,19.39,42.73,4.2,59.06" transform="translate(-13 -15.91)"/><path class="cls-8" d="M355.26,286.81L386,378.71h-8l-9.54-28.58H332.78l-9.43,28.58h-7.9l31.48-91.9h8.33Zm10.65,55.86-15.14-47.11-15.69,47.11h30.82Z" transform="translate(-13 -15.91)"/><path class="cls-8" d="M432.51,287.53L459.6,368.1l27-80.58h11v91.9h-7.46V300h-0.22l-26.76,79.42h-7L429.22,300H429v79.42h-7.46v-91.9h11Z" transform="translate(-13 -15.91)"/><path class="cls-8" d="M127.32,287.21h20.17q12.68,0,19.38,6.45t6.71,17.42q0,16-15,22.48,3.89,2.19,10.48,14.09l17.8,31.94h-7.2L166,354.27q-6.87-12.7-10.7-15.85T144,335.28H133.4v44.3h-6.09V287.21Zm6.09,6v36.17h13.07q10,0,15.24-4.73T167,311.21q0-8.53-5.35-13.29t-15.38-4.76H133.4Z" transform="translate(-13 -15.91)"/><path class="cls-8" d="M155.36,445.26c4.29-1.8.48,2.22-10.6,2.22-5.23,0-9.53-1.56-12.91-5.35-3-3.36-4.81-8.77-4.81-15.08,0.05-12.08,7.12-20.92,18.69-20.92a18.65,18.65,0,0,1,8.6,1.86l-1.07,4.26a15.66,15.66,0,0,0-7.63-1.74c-8.4,0-13.88,6.13-13.88,16.29s5.28,16.35,13.32,16.35a12.57,12.57,0,0,0,5.94-1.09V430h-7v-4.21h11.37v19.47Z" transform="translate(-13 -15.91)"/><path class="cls-8" d="M201.78,428.07H188.36v14.6h15v4.39H183.9V406.55h18.64v4.39H188.36v12.8h13.42v4.33Z" transform="translate(-13 -15.91)"/><path class="cls-8" d="M240.87,411h-10.5v-4.45h25.56V411H245.38v36.06h-4.51V411Z" transform="translate(-13 -15.91)"/><path class="cls-8" d="M303.63,406.55h4.45v36.12h14.75v4.39h-19.2V406.55Z" transform="translate(-13 -15.91)"/><path class="cls-8" d="M415.93,440.69a14.14,14.14,0,0,0,8,2.65c4.56,0,7.22-2.83,7.22-6.91,0-3.78-1.84-6-6.5-8.05-5.63-2.34-9.11-5.77-9.11-11.48,0-6.31,4.46-11,11.16-11a13.85,13.85,0,0,1,7.64,2l-1.23,4.27a12.26,12.26,0,0,0-6.56-1.92c-4.71,0-6.51,3.31-6.51,6.07,0,3.79,2.1,5.65,6.86,7.81,5.84,2.64,8.81,6,8.81,11.9,0,6.25-3.95,11.72-12.09,11.72a15.83,15.83,0,0,1-8.81-2.64Z" transform="translate(-13 -15.91)"/><path class="cls-8" d="M482.5,411H472v-4.45h25.55V411H487v36.06h-4.5V411Z" transform="translate(-13 -15.91)"/><path class="cls-8" d="M365.74,405.51c-10,0-18.18,9.56-18.18,21.33s8.14,21.34,18.18,21.34,18.18-9.56,18.18-21.34S375.78,405.51,365.74,405.51Zm0,38c-7.83,0-14.19-7.46-14.19-16.66s6.36-16.66,14.19-16.66,14.2,7.46,14.2,16.66S373.59,443.5,365.74,443.5Z" transform="translate(-13 -15.91)"/><polygon class="cls-4" points="284 268.35 281.4 287.44 295.4 315.94 302.86 318.73 322.21 268.35 284 268.35"/><polygon class="cls-4" points="427.28 271.13 446.56 326.38 463.04 273.11 427.28 271.13"/><polygon class="cls-4" points="350.93 268.48 382.95 361.47 396.07 361.47 394.25 268.02 350.93 268.48"/><polygon class="cls-4" points="328.18 342.33 346.16 342.76 355.49 366.05 321.04 364.25 328.18 342.33"/><path class="cls-4" d="M139,301.34v22.39s21.13,2.62,21.13-11.06C160.15,298.41,139,301.34,139,301.34Z" transform="translate(-13 -15.91)"/><path class="cls-4" d="M140.51,381V347.9s12.46-1.21,27,33.14h-27Z" transform="translate(-13 -15.91)"/><polygon class="cls-4" points="290.63 274.61 303.92 303.2 319.18 274.61 290.63 274.61"/><polygon class="cls-4" points="331.73 320.56 342.73 320.56 337.5 304.61 331.73 320.56"/><polygon class="cls-7" points="48.4 456.94 87.4 450.94 67.9 491.94 48.4 456.94"/><polygon class="cls-4" points="163.09 323.47 181.57 361.2 181.57 342.33 172.33 323.47 163.09 323.47"/><path class="cls-4" d="M176.09,327.46h9.24l9.24-25.82-6.51-21.29-15,8.5C183.71,298.85,180.83,321.25,176.09,327.46Z" transform="translate(-13 -15.91)"/><polygon class="cls-4" points="300.9 329.44 290.93 361.2 284 342.33 290.76 326.55 300.9 329.44"/><rect class="cls-2" x="381.67" y="339.59" width="33.7" height="10" transform="translate(-24.67 -1.93) rotate(-1.98)"/></g><path class="cls-1" d="M324.23,617.93a286.23,286.23,0,0,1-202.4-488.63,286.23,286.23,0,0,1,404.8,404.8A284.36,284.36,0,0,1,324.23,617.93Z" transform="translate(-13 -15.91)"/></svg>