<svg id="Layer_1" data-name="Layer 1" xmlns="http://www.w3.org/2000/svg" viewBox="0 0 389.18 336.86"><defs><style>.cls-1{fill:#e5e5e5;}</style></defs><title>refresh</title><path class="cls-1" d="M200.89,320.17c-76.47,0-138.92-61-141.36-136.88l26.2,0.15L46.3,118.69,6.15,183l26.43,0.15c2.37,90.82,76.93,164,168.32,164a168.42,168.42,0,0,0,109.62-40.55L293,286.12A141.47,141.47,0,0,1,200.89,320.17Z" transform="translate(-6.15 -10.27)"/><path class="cls-1" d="M369.27,176.86c-1-92-76.12-166.59-168.38-166.59a168.37,168.37,0,0,0-110.18,41l17.64,20.38a141.42,141.42,0,0,1,92.54-34.46c76.27,0,138.61,60.68,141.35,136.3l-25.88-3.2,31.58,68.92,47.4-59.16Z" transform="translate(-6.15 -10.27)"/></svg>