<svg id="Layer_1" data-name="Layer 1" xmlns="http://www.w3.org/2000/svg" viewBox="0 0 1022.22 1022.22"><defs><style>.cls-1{fill:#fbbb18;}.cls-2{fill:#59595a;}</style></defs><title>safety</title><path class="cls-1" d="M538.32,73.16a14.87,14.87,0,0,0-20.92,0l-452,452a14.8,14.8,0,0,0,0,20.92l452,452a14.87,14.87,0,0,0,20.92,0l452-452a14.88,14.88,0,0,0,0-20.92Zm483.35,420.57-452-451.95a59.27,59.27,0,0,0-83.71,0l-452,452a59.27,59.27,0,0,0,0,83.69l451.95,452a59.28,59.28,0,0,0,83.71,0l452-452A59.24,59.24,0,0,0,1021.66,493.73Zm-20.92,62.78-452,452a29.69,29.69,0,0,1-41.85,0l-452-452a29.69,29.69,0,0,1,0-41.85l452-452a29.69,29.69,0,0,1,41.85,0l452,452A29.69,29.69,0,0,1,1000.74,556.51Z" transform="translate(-16.75 -24.48)"/><path class="cls-2" d="M525.89,204.4v53.92h-7V204.4h7Z" transform="translate(-16.75 -24.48)"/><path class="cls-2" d="M343.74,337.36l-5.6,17h-7.2l18.32-53.92h8.4l18.4,53.92h-7.44l-5.76-17H343.74Zm17.68-5.44-5.28-15.52c-1.2-3.52-2-6.72-2.8-9.84h-0.16c-0.8,3.2-1.68,6.48-2.72,9.76l-5.28,15.6h16.24Z" transform="translate(-16.75 -24.48)"/><path class="cls-2" d="M428.67,351.92a50.23,50.23,0,0,1-16.56,3c-8.16,0-14.88-2.08-20.16-7.12-4.64-4.48-7.52-11.68-7.52-20.08,0.08-16.08,11.12-27.84,29.2-27.84a33.33,33.33,0,0,1,13.44,2.48L425.39,308a27.94,27.94,0,0,0-11.92-2.32c-13.12,0-21.68,8.16-21.68,21.68,0,13.68,8.24,21.76,20.8,21.76,4.56,0,7.68-.64,9.28-1.44V331.6h-11V326h17.76v25.92Z" transform="translate(-16.75 -24.48)"/><path class="cls-2" d="M445.7,301.12A72.44,72.44,0,0,1,459.06,300c7.44,0,12.24,1.36,15.6,4.4a13.43,13.43,0,0,1,4.24,10.24c0,7.12-4.48,11.84-10.16,13.76v0.24c4.16,1.44,6.64,5.28,7.92,10.88,1.76,7.52,3,12.72,4.16,14.8h-7.2c-0.88-1.52-2.08-6.16-3.6-12.88-1.6-7.44-4.48-10.24-10.8-10.48h-6.56v23.36h-7v-53.2Zm7,24.56h7.12c7.44,0,12.16-4.08,12.16-10.24,0-7-5-10-12.4-10.08a28.62,28.62,0,0,0-6.88.64v19.68Z" transform="translate(-16.75 -24.48)"/><path class="cls-2" d="M523.2,329h-21v19.44H525.6v5.84H495.28V300.4H524.4v5.84H502.24v17h21V329Z" transform="translate(-16.75 -24.48)"/><path class="cls-2" d="M567.89,329h-21v19.44h23.36v5.84H540V300.4h29.12v5.84H546.93v17h21V329Z" transform="translate(-16.75 -24.48)"/><path class="cls-2" d="M622.53,306.32h-16.4V300.4H646v5.92H629.56v48h-7v-48Z" transform="translate(-16.75 -24.48)"/><path class="cls-2" d="M702.62,326.8c0,18.56-11.28,28.4-25,28.4-14.24,0-24.24-11-24.24-27.36,0-17.12,10.64-28.32,25-28.32C693.1,299.52,702.62,310.8,702.62,326.8Zm-41.84.88c0,11.52,6.24,21.84,17.2,21.84s17.28-10.16,17.28-22.4c0-10.72-5.6-21.92-17.2-21.92S660.78,315.84,660.78,327.68Z" transform="translate(-16.75 -24.48)"/><path class="cls-2" d="M274.56,396.4h29v5.84H281.52v17.92h20.4v5.76h-20.4v24.4h-7V396.4Z" transform="translate(-16.75 -24.48)"/><path class="cls-2" d="M364.79,422.8c0,18.56-11.28,28.4-25,28.4-14.24,0-24.24-11-24.24-27.36,0-17.12,10.64-28.32,25-28.32C355.27,395.52,364.79,406.8,364.79,422.8Zm-41.84.88c0,11.52,6.24,21.84,17.2,21.84s17.28-10.16,17.28-22.4c0-10.72-5.6-21.92-17.2-21.92S322.95,411.84,322.95,423.68Z" transform="translate(-16.75 -24.48)"/><path class="cls-2" d="M380.31,396.4h7v48.08h23v5.84h-30V396.4Z" transform="translate(-16.75 -24.48)"/><path class="cls-2" d="M423.66,396.4h7v48.08h23v5.84h-30V396.4Z" transform="translate(-16.75 -24.48)"/><path class="cls-2" d="M511.33,422.8c0,18.56-11.28,28.4-25,28.4-14.24,0-24.24-11-24.24-27.36,0-17.12,10.64-28.32,25-28.32C501.81,395.52,511.33,406.8,511.33,422.8Zm-41.84.88c0,11.52,6.24,21.84,17.2,21.84S504,435.36,504,423.12c0-10.72-5.6-21.92-17.2-21.92S469.49,411.84,469.49,423.68Z" transform="translate(-16.75 -24.48)"/><path class="cls-2" d="M534.37,450.32L520.69,396.4H528l6.4,27.28c1.6,6.72,3,13.44,4,18.64h0.16c0.88-5.36,2.56-11.76,4.4-18.72l7.2-27.2h7.28L564,423.76c1.52,6.4,3,12.8,3.76,18.48H568c1.12-5.92,2.64-11.92,4.32-18.64l7.12-27.2h7.12l-15.28,53.92H564l-6.8-28.08a162.57,162.57,0,0,1-3.52-17.6h-0.16a168.43,168.43,0,0,1-4.16,17.6l-7.68,28.08h-7.28Z" transform="translate(-16.75 -24.48)"/><path class="cls-2" d="M634.93,433.36l-5.6,17h-7.2l18.32-53.92h8.4l18.4,53.92h-7.44l-5.76-17H634.93Zm17.68-5.44-5.28-15.52c-1.2-3.52-2-6.72-2.8-9.84h-0.16c-0.8,3.2-1.68,6.48-2.72,9.76l-5.28,15.6h16.24Z" transform="translate(-16.75 -24.48)"/><path class="cls-2" d="M680.71,396.4h7v48.08h23v5.84h-30V396.4Z" transform="translate(-16.75 -24.48)"/><path class="cls-2" d="M724.06,396.4h7v48.08h23v5.84h-30V396.4Z" transform="translate(-16.75 -24.48)"/><path class="cls-2" d="M150.84,498.32h-16.4V492.4h39.92v5.92H157.88v48h-7v-48Z" transform="translate(-16.75 -24.48)"/><path class="cls-2" d="M186.92,493.12A72.44,72.44,0,0,1,200.28,492c7.44,0,12.24,1.36,15.6,4.4a13.43,13.43,0,0,1,4.24,10.24c0,7.12-4.48,11.84-10.16,13.76v0.24c4.16,1.44,6.64,5.28,7.92,10.88,1.76,7.52,3,12.72,4.16,14.8h-7.2c-0.88-1.52-2.08-6.16-3.6-12.88-1.6-7.44-4.48-10.24-10.8-10.48h-6.56v23.36h-7v-53.2Zm7,24.56H201c7.44,0,12.16-4.08,12.16-10.24,0-7-5-10-12.4-10.08a28.62,28.62,0,0,0-6.88.64v19.68Z" transform="translate(-16.75 -24.48)"/><path class="cls-2" d="M246.42,529.36l-5.6,17h-7.2l18.32-53.92h8.4l18.4,53.92H271.3l-5.76-17H246.42Zm17.68-5.44-5.28-15.52c-1.2-3.52-2-6.72-2.8-9.84h-0.16c-0.8,3.2-1.68,6.48-2.72,9.76l-5.28,15.6H264.1Z" transform="translate(-16.75 -24.48)"/><path class="cls-2" d="M292.2,492.4h29v5.84H299.16v17.92h20.4v5.76h-20.4v24.4h-7V492.4Z" transform="translate(-16.75 -24.48)"/><path class="cls-2" d="M335.56,492.4h29v5.84H342.52v17.92h20.4v5.76h-20.4v24.4h-7V492.4Z" transform="translate(-16.75 -24.48)"/><path class="cls-2" d="M385.88,492.4v53.92h-7V492.4h7Z" transform="translate(-16.75 -24.48)"/><path class="cls-2" d="M442.08,544.56c-2.56,1.28-7.68,2.56-14.24,2.56-15.2,0-26.64-9.6-26.64-27.28,0-16.88,11.44-28.32,28.16-28.32,6.72,0,11,1.44,12.8,2.4l-1.68,5.68a25.36,25.36,0,0,0-10.88-2.24c-12.64,0-21,8.08-21,22.24,0,13.2,7.6,21.68,20.72,21.68A27.85,27.85,0,0,0,440.64,539Z" transform="translate(-16.75 -24.48)"/><path class="cls-2" d="M483.75,492.4h7v48.08h23v5.84h-30V492.4Z" transform="translate(-16.75 -24.48)"/><path class="cls-2" d="M538.06,529.36l-5.6,17h-7.2l18.32-53.92H552l18.4,53.92h-7.44l-5.76-17H538.06Zm17.68-5.44-5.28-15.52c-1.2-3.52-2-6.72-2.8-9.84H547.5c-0.8,3.2-1.68,6.48-2.72,9.76l-5.28,15.6h16.24Z" transform="translate(-16.75 -24.48)"/><path class="cls-2" d="M589.79,546.32L576.1,492.4h7.36l6.4,27.28c1.6,6.72,3,13.44,4,18.64H594c0.88-5.36,2.56-11.76,4.4-18.72l7.2-27.2h7.28l6.56,27.36c1.52,6.4,3,12.8,3.76,18.48h0.16c1.12-5.92,2.64-11.92,4.32-18.64l7.12-27.2h7.12l-15.28,53.92h-7.28l-6.8-28.08a162.6,162.6,0,0,1-3.52-17.6h-0.16a168.43,168.43,0,0,1-4.16,17.6l-7.68,28.08h-7.28Z" transform="translate(-16.75 -24.48)"/><path class="cls-2" d="M653.3,537.84a24.67,24.67,0,0,0,12.48,3.52c7.12,0,11.28-3.76,11.28-9.2,0-5-2.88-7.92-10.16-10.72-8.8-3.12-14.24-7.68-14.24-15.28,0-8.4,7-14.64,17.44-14.64A24.5,24.5,0,0,1,682,494.16l-1.92,5.68a21.48,21.48,0,0,0-10.24-2.56c-7.36,0-10.16,4.4-10.16,8.08,0,5,3.28,7.52,10.72,10.4,9.12,3.52,13.76,7.92,13.76,15.84,0,8.32-6.16,15.52-18.88,15.52-5.2,0-10.88-1.52-13.76-3.44Z" transform="translate(-16.75 -24.48)"/><path class="cls-2" d="M735.38,529.36l-5.6,17h-7.2l18.32-53.92h8.4l18.4,53.92h-7.44l-5.76-17H735.38Zm17.68-5.44-5.28-15.52c-1.2-3.52-2-6.72-2.8-9.84h-0.16c-0.8,3.2-1.68,6.48-2.72,9.76l-5.28,15.6h16.24Z" transform="translate(-16.75 -24.48)"/><path class="cls-2" d="M781.16,546.32V492.4h7.6L806,519.68a152.55,152.55,0,0,1,9.68,17.52l0.16-.08c-0.64-7.2-.8-13.76-0.8-22.16V492.4h6.56v53.92h-7L797.48,519a171.33,171.33,0,0,1-10.08-18l-0.24.08c0.4,6.8.56,13.28,0.56,22.24v23h-6.56Z" transform="translate(-16.75 -24.48)"/><path class="cls-2" d="M840,493.12a99.61,99.61,0,0,1,14.8-1.12c10,0,17.12,2.32,21.84,6.72s7.6,10.64,7.6,19.36-2.72,16-7.76,21-13.36,7.76-23.84,7.76a112.27,112.27,0,0,1-12.64-.64v-53Zm7,47.68a43.91,43.91,0,0,0,7,.4c14.88,0,23-8.32,23-22.88,0.08-12.72-7.12-20.8-21.84-20.8a39.51,39.51,0,0,0-8.16.72V540.8Z" transform="translate(-16.75 -24.48)"/><path class="cls-2" d="M200.33,594.32h-16.4V588.4h39.92v5.92H207.37v48h-7v-48Z" transform="translate(-16.75 -24.48)"/><path class="cls-2" d="M280.43,614.8c0,18.56-11.28,28.4-25,28.4-14.24,0-24.24-11-24.24-27.36,0-17.12,10.64-28.32,25-28.32C270.91,587.52,280.43,598.8,280.43,614.8Zm-41.84.88c0,11.52,6.24,21.84,17.2,21.84s17.28-10.16,17.28-22.4c0-10.72-5.6-21.92-17.2-21.92S238.59,603.84,238.59,615.68Z" transform="translate(-16.75 -24.48)"/><path class="cls-2" d="M322.43,589a80.61,80.61,0,0,1,13.36-1c6.88,0,11.92,1.6,15.12,4.48a14.5,14.5,0,0,1,4.72,11.28c0,4.88-1.44,8.72-4.16,11.52-3.68,3.92-9.68,5.92-16.48,5.92a24,24,0,0,1-5.6-.48v21.6h-7V589Zm7,26a23.32,23.32,0,0,0,5.76.56c8.4,0,13.52-4.08,13.52-11.52,0-7.12-5-10.56-12.72-10.56a29.18,29.18,0,0,0-6.56.56v21Z" transform="translate(-16.75 -24.48)"/><path class="cls-2" d="M369.7,589.12A72.44,72.44,0,0,1,383.06,588c7.44,0,12.24,1.36,15.6,4.4a13.43,13.43,0,0,1,4.24,10.24c0,7.12-4.48,11.84-10.16,13.76v0.24c4.16,1.44,6.64,5.28,7.92,10.88,1.76,7.52,3,12.72,4.16,14.8h-7.2c-0.88-1.52-2.08-6.16-3.6-12.88-1.6-7.44-4.48-10.24-10.8-10.48h-6.56v23.36h-7v-53.2Zm7,24.56h7.12c7.44,0,12.16-4.08,12.16-10.24,0-7-5-10-12.4-10.08a28.62,28.62,0,0,0-6.88.64v19.68Z" transform="translate(-16.75 -24.48)"/><path class="cls-2" d="M465.09,614.8c0,18.56-11.28,28.4-25,28.4-14.24,0-24.24-11-24.24-27.36,0-17.12,10.64-28.32,25-28.32C455.57,587.52,465.09,598.8,465.09,614.8Zm-41.84.88c0,11.52,6.24,21.84,17.2,21.84s17.28-10.16,17.28-22.4c0-10.72-5.6-21.92-17.2-21.92S423.25,603.84,423.25,615.68Z" transform="translate(-16.75 -24.48)"/><path class="cls-2" d="M518.5,640.56c-2.56,1.28-7.68,2.56-14.24,2.56-15.2,0-26.64-9.6-26.64-27.28,0-16.88,11.44-28.32,28.16-28.32,6.72,0,11,1.44,12.8,2.4l-1.68,5.68A25.36,25.36,0,0,0,506,593.36c-12.64,0-21,8.08-21,22.24,0,13.2,7.6,21.68,20.72,21.68A27.85,27.85,0,0,0,517.06,635Z" transform="translate(-16.75 -24.48)"/><path class="cls-2" d="M560.24,617h-21v19.44h23.36v5.84H532.32V588.4h29.12v5.84H539.28v17h21V617Z" transform="translate(-16.75 -24.48)"/><path class="cls-2" d="M604.93,617H584v19.44h23.36v5.84H577V588.4h29.12v5.84H584v17h21V617Z" transform="translate(-16.75 -24.48)"/><path class="cls-2" d="M621.7,589.12A99.62,99.62,0,0,1,636.5,588c10,0,17.12,2.32,21.84,6.72s7.6,10.64,7.6,19.36-2.72,16-7.76,21-13.36,7.76-23.84,7.76a112.25,112.25,0,0,1-12.64-.64v-53Zm7,47.68a43.9,43.9,0,0,0,7,.4c14.88,0,23-8.32,23-22.88,0.08-12.72-7.12-20.8-21.84-20.8a39.51,39.51,0,0,0-8.16.72V636.8Z" transform="translate(-16.75 -24.48)"/><path class="cls-2" d="M716.74,642.32L703.06,588.4h7.36l6.4,27.28c1.6,6.72,3,13.44,4,18.64H721c0.88-5.36,2.56-11.76,4.4-18.72l7.2-27.2h7.28l6.56,27.36c1.52,6.4,3,12.8,3.76,18.48h0.16c1.12-5.92,2.64-11.92,4.32-18.64l7.12-27.2h7.12l-15.28,53.92h-7.28l-6.8-28.08a162.6,162.6,0,0,1-3.52-17.6h-0.16a168.43,168.43,0,0,1-4.16,17.6L724,642.32h-7.28Z" transform="translate(-16.75 -24.48)"/><path class="cls-2" d="M788.82,588.4v53.92h-7V588.4h7Z" transform="translate(-16.75 -24.48)"/><path class="cls-2" d="M817.74,594.32h-16.4V588.4h39.92v5.92H824.78v48h-7v-48Z" transform="translate(-16.75 -24.48)"/><path class="cls-2" d="M860.78,588.4V611h26.08V588.4h7v53.92h-7V617H860.78v25.28h-7V588.4h7Z" transform="translate(-16.75 -24.48)"/><path class="cls-2" d="M403.77,736.56c-2.56,1.28-7.68,2.56-14.24,2.56-15.2,0-26.64-9.6-26.64-27.28,0-16.88,11.44-28.32,28.16-28.32,6.72,0,11,1.44,12.8,2.4l-1.68,5.68a25.36,25.36,0,0,0-10.88-2.24c-12.64,0-21,8.08-21,22.24,0,13.2,7.6,21.68,20.72,21.68A27.85,27.85,0,0,0,402.33,731Z" transform="translate(-16.75 -24.48)"/><path class="cls-2" d="M428.39,721.36l-5.6,17h-7.2l18.32-53.92h8.4l18.4,53.92h-7.44l-5.76-17H428.39Zm17.68-5.44-5.28-15.52c-1.2-3.52-2-6.72-2.8-9.84h-0.16c-0.8,3.2-1.68,6.48-2.72,9.76l-5.28,15.6h16.24Z" transform="translate(-16.75 -24.48)"/><path class="cls-2" d="M479.06,684.4v31.92c0,12.08,5.36,17.2,12.56,17.2,8,0,13.12-5.28,13.12-17.2V684.4h7v31.44c0,16.56-8.72,23.36-20.4,23.36-11,0-19.36-6.32-19.36-23V684.4h7Z" transform="translate(-16.75 -24.48)"/><path class="cls-2" d="M540.79,690.32h-16.4V684.4h39.92v5.92H547.83v48h-7v-48Z" transform="translate(-16.75 -24.48)"/><path class="cls-2" d="M583.82,684.4v53.92h-7V684.4h7Z" transform="translate(-16.75 -24.48)"/><path class="cls-2" d="M648.56,710.8c0,18.56-11.28,28.4-25,28.4-14.24,0-24.24-11-24.24-27.36,0-17.12,10.64-28.32,25-28.32C639,683.52,648.56,694.8,648.56,710.8Zm-41.84.88c0,11.52,6.24,21.84,17.2,21.84s17.28-10.16,17.28-22.4c0-10.72-5.6-21.92-17.2-21.92S606.72,699.84,606.72,711.68Z" transform="translate(-16.75 -24.48)"/><path class="cls-2" d="M664.08,738.32V684.4h7.6L689,711.68a152.72,152.72,0,0,1,9.68,17.52l0.16-.08c-0.64-7.2-.8-13.76-0.8-22.16V684.4h6.56v53.92h-7L680.4,711a171.16,171.16,0,0,1-10.08-18l-0.24.08c0.4,6.8.56,13.28,0.56,22.24v23h-6.56Z" transform="translate(-16.75 -24.48)"/></svg>