<svg id="Layer_1" data-name="Layer 1" xmlns="http://www.w3.org/2000/svg" viewBox="0 0 658.39 658.39"><defs><style>.cls-1{opacity:0.76;}.cls-2{fill:#f15a33;}.cls-3{fill:#656765;}</style></defs><title>stop</title><g class="cls-1"><path class="cls-2" d="M445.92,43.52l-236.2,1.13L43.51,212.47l1.13,236.21L212.47,614.88l236.2-1.13,166.2-167.84-1.13-236.2Zm211.29,161c0-7.18-4.24-17.18-9.33-22.23L473,9.12c-5.1-5-15.14-9.15-22.31-9.12L204.54,1.19c-7.17,0-17.17,4.23-22.23,9.33L9.11,185.4c-5,5.1-9.15,15.14-9.11,22.32L1.19,453.85c0,7.18,4.23,17.18,9.33,22.23l174.89,173.2c5.1,5,15.14,9.15,22.31,9.12l246.13-1.18c7.18,0,17.18-4.23,22.23-9.33L649.28,473c5-5.1,9.15-15.14,9.11-22.32ZM621,452L454.85,619.87l-2.54,2.56-3.6,0-236.19,1.12-3.59,0-2.57-2.54L38.52,454.86,36,452.32l0-3.6-1.13-236.2,0-3.59,2.54-2.57L203.54,38.53,206.07,36l3.61,0,236.2-1.14,3.59,0L452,37.33l167.82,166.2,2.56,2.54,0,3.61,1.13,236.2,0,3.59Z"/></g><path class="cls-3" d="M88.22,398.81c9.77,6.19,21.19,9.76,36.67,9.76,20.48,0,37.39-10.48,37.39-34.05,0-32.63-76.2-36.68-76.2-80.25,0-26.67,23.33-43.34,52.63-43.34,8.1,0,21.2,1.19,32.63,5.47l-2.62,15c-7.38-4-19.05-6.19-30.25-6.19-17.15,0-36,7.15-36,28.58,0,33.34,76.21,33.58,76.21,82.16,0,33.58-28.82,46.91-54.54,46.91-16.2,0-28.82-3.33-37.63-7.14Z"/><path class="cls-3" d="M240.36,268.06H191.3V253.77H305.84v14.29H256.78V420H240.36V268.06Z"/><path class="cls-3" d="M383.36,250.92c50,0,73.59,41,73.11,86-0.48,51-25.24,86-73.11,86s-72.64-35-73.11-86C309.78,291.88,333.35,250.92,383.36,250.92Zm-56.68,86c0,35.24,17.62,71.68,56.68,71.68S440,372.14,440,336.89s-17.62-71.69-56.69-71.69S326.69,301.64,326.69,336.89Z"/><path class="cls-3" d="M486.75,253.77h41c31.2,0,51.44,15.72,51.44,47.16,0,31-23.34,47.15-53.11,47.15H503.18V420H486.75V253.77Zm16.43,80h11.43c24.77,0,48.1-2.86,48.1-32.87,0-21-11.91-32.87-32.86-32.87H503.18V333.8Z"/></svg>