<svg id="Layer_1" data-name="Layer 1" xmlns="http://www.w3.org/2000/svg" viewBox="0 0 786.05 786.05"><defs><style>.cls-1{fill:#fbbb18;}.cls-2{fill:#656765;}</style></defs><title>turn-right</title><path class="cls-1" d="M413.87,56.06a11.43,11.43,0,0,0-16.08,0L50.24,403.6a11.38,11.38,0,0,0,0,16.09L397.78,767.23a11.43,11.43,0,0,0,16.08,0L761.41,419.69a11.44,11.44,0,0,0,0-16.09ZM785.55,379.47L438,31.93a45.58,45.58,0,0,0-64.37,0L26.1,379.47a45.58,45.58,0,0,0,0,64.36L373.64,791.37a45.58,45.58,0,0,0,64.37,0L785.55,443.83A45.56,45.56,0,0,0,785.55,379.47Zm-16.09,48.27L421.92,775.28a22.83,22.83,0,0,1-32.18,0L42.19,427.74a22.83,22.83,0,0,1,0-32.18L389.73,48a22.83,22.83,0,0,1,32.18,0L769.46,395.56A22.83,22.83,0,0,1,769.46,427.74Z" transform="translate(-12.8 -18.62)"/><path class="cls-2" d="M567.55,335.06L454.27,278.42v38.37h-7.1A136.18,136.18,0,0,0,310.6,448.38c-0.06,1.8-.09,87.7-0.09,88.68v7.19h38.36v-7.19c0-4.57,0-85.28.09-88.1a98.3,98.3,0,0,1,98.23-93.82h7.07V391.7Z" transform="translate(-12.8 -18.62)"/><path class="cls-2" d="M325.6,185.17H310.68V177H351v8.21H336V229H325.6V185.17Z" transform="translate(-12.8 -18.62)"/><path class="cls-2" d="M357.24,177h10.45V207c0,8.88,2.83,14.7,10.82,14.7s10.82-5.82,10.82-14.7V177h10.45v33.28c0,14-7.91,19.7-21.26,19.7s-21.27-5.75-21.27-19.7V177Z" transform="translate(-12.8 -18.62)"/><path class="cls-2" d="M410.59,177h11.27c11.19,0,24.55-.37,24.55,14.1a11.92,11.92,0,0,1-10.74,12.09v0.15c2.83,0.22,4.48,3.06,5.52,5.37L449.54,229H437.9l-6.27-16.27c-1.49-3.88-2.84-5.37-7.24-5.37H421V229H410.59V177ZM421,199.19h3.43c5.15,0,11-.75,11-7.24,0-6.27-5.82-6.79-11-6.79H421v14Z" transform="translate(-12.8 -18.62)"/><path class="cls-2" d="M456.55,177h12.83l19.85,38.95h0.15V177h10V229H486.63L466.7,190.09h-0.15V229h-10V177Z" transform="translate(-12.8 -18.62)"/><path class="cls-2" d="M313.46,608.84h10.32c10.26,0,22.5-.38,22.5,14.32,0,6.21-3.76,11.37-9.85,12.28v0.15c2.6,0.23,4.1,3.11,5.06,5.46l7.66,20.69H338.48l-5.74-16.52c-1.37-3.94-2.6-5.46-6.63-5.46H323v22h-9.57V608.84ZM323,631.42h3.15c4.72,0,10.12-.76,10.12-7.35,0-6.37-5.33-6.9-10.12-6.9H323v14.25Z" transform="translate(-12.8 -18.62)"/><path class="cls-2" d="M355.23,608.84h9.57v52.89h-9.57V608.84Z" transform="translate(-12.8 -18.62)"/><path class="cls-2" d="M412.32,619.07a28.64,28.64,0,0,0-12.31-2.8c-11.15,0-17.3,8.33-17.3,19.17s6,18.87,16.21,18.87a23.51,23.51,0,0,0,6.29-.76V639.75H395.09v-8.34h19.28v28.49a54.86,54.86,0,0,1-15.45,2.73c-15.45,0-26.19-8.56-26.19-26.45,0-18.11,10-28.26,26.19-28.26a42.88,42.88,0,0,1,14,2.2Z" transform="translate(-12.8 -18.62)"/><path class="cls-2" d="M424.42,608.84H434v21.37h19.15V608.84h9.57v52.89h-9.57V638.54H434v23.19h-9.57V608.84Z" transform="translate(-12.8 -18.62)"/><path class="cls-2" d="M482.46,617.17H468.79v-8.34h36.92v8.34H492v44.56h-9.57V617.17Z" transform="translate(-12.8 -18.62)"/></svg>