<svg id="Layer_1" data-name="Layer 1" xmlns="http://www.w3.org/2000/svg" viewBox="0 0 643.16 643.16"><defs><style>.cls-1{fill:#fbbb18;opacity:0.64;}.cls-2{fill:#656765;}</style></defs><title>u-turn</title><path class="cls-1" d="M328.16,30.63a9.36,9.36,0,0,0-13.16,0L30.64,315a9.31,9.31,0,0,0,0,13.16L315,612.53a9.36,9.36,0,0,0,13.16,0L612.52,328.16a9.35,9.35,0,0,0,0-13.16ZM632.27,295.25L347.92,10.89a37.29,37.29,0,0,0-52.67,0L10.88,295.25a37.29,37.29,0,0,0,0,52.66L295.24,632.28a37.29,37.29,0,0,0,52.66,0L632.27,347.91A37.27,37.27,0,0,0,632.27,295.25Zm-13.16,39.5L334.75,619.11a18.68,18.68,0,0,1-26.33,0L24,334.75a18.67,18.67,0,0,1,0-26.33L308.41,24a18.68,18.68,0,0,1,26.33,0L619.11,308.41A18.68,18.68,0,0,1,619.11,334.75Z"/><path class="cls-2" d="M237.31,441.9c-0.11-1.94-.19-165.61-0.19-167.59,0-24.88,9-47.08,23-62.79s32.59-24.79,52.88-24.81,38.79,9.1,52.89,24.81,23,37.9,23,62.79c0,2-.08,87.49-0.19,89.43h40.48c0.08-2,.14-87.46.14-89.43,0-34.66-12.5-66.37-33.28-89.69S345.84,146.26,313,146.28s-62.36,15-83.06,38.34-33.28,55-33.28,89.69c0,2,.05,165.64.13,167.59h40.48Z"/><polygon class="cls-2" points="408.95 478.74 474.76 363.29 343.59 363.29 408.95 478.74"/></svg>