<svg id="Layer_1" data-name="Layer 1" xmlns="http://www.w3.org/2000/svg" xmlns:xlink="http://www.w3.org/1999/xlink" viewBox="0 0 783.9 371.07"><defs><style>.cls-1{fill:none;}.cls-2{clip-path:url(#clip-path);}.cls-3{fill:#fff;}</style><clipPath id="clip-path" transform="translate(4.5 -40.08)"><polygon class="cls-1" points="772 422 421.22 54.82 487.47 54.82 491.67 29 271.68 29 273.51 54.92 340.94 54.82 0 422 772 422"/></clipPath></defs><title>walk-arrow-off</title><g class="cls-2"><polygon class="cls-3" points="0 371.07 783.9 370.38 718.62 306.95 59.25 306.95 0 371.07"/><polygon class="cls-3" points="91 279.68 689.7 279.68 650.7 241.63 124.84 242.99 91 279.68"/><polygon class="cls-3" points="139.31 210.44 628.26 210.44 602.32 181.37 167.51 181.37 139.31 210.44"/><polygon class="cls-3" points="196.03 157.85 559.76 157.85 541.72 133.59 215.21 136.39 196.03 157.85"/><polygon class="cls-3" points="243.15 114.93 529.94 115.59 511.89 96.98 262.02 96.98 243.15 114.93"/><polygon class="cls-3" points="276.18 84.46 507.33 85.18 490.11 68.92 286.33 69.22 276.18 84.46"/><polygon class="cls-3" points="300.21 58.82 476.69 58.82 465.13 47.91 309.51 48.43 300.21 58.82"/><polygon class="cls-3" points="317.89 39.6 457.15 39.43 448.41 31.99 325.22 31.99 317.89 39.6"/><polygon class="cls-3" points="335.47 24.89 442.51 24.72 436.31 18.83 341.68 18.32 335.47 24.89"/><polygon class="cls-3" points="385.27 0 286.78 14.74 491.97 14.74 385.27 0"/></g></svg>