<svg id="Layer_1" data-name="Layer 1" xmlns="http://www.w3.org/2000/svg" xmlns:xlink="http://www.w3.org/1999/xlink" viewBox="0 0 656.24 306.95"><defs><style>.cls-1{fill:none;}.cls-2{clip-path:url(#clip-path);}.cls-3{fill:#fff;}</style><clipPath id="clip-path" transform="translate(-58.91 -40.08)"><polygon class="cls-1" points="772 422 421.22 54.82 515.9 54.67 539.86 7 232.55 7 257.46 54.67 340.94 54.82 0 422 772 422"/></clipPath></defs><title>walk-arrow-on</title><g class="cls-2"><polygon class="cls-3" points="656.24 306.95 0 306.95 25.34 279.68 630.24 279.68 656.24 306.95"/><rect class="cls-3" x="51.09" y="210.44" width="538.3" height="33.24"/><rect class="cls-3" x="90.09" y="158.15" width="448.82" height="24.22"/><rect class="cls-3" x="142.09" y="114.92" width="380" height="21"/><rect class="cls-3" x="189.49" y="84.86" width="264" height="12.13"/><rect class="cls-3" x="213.59" y="58.82" width="218" height="10.1"/><rect class="cls-3" x="234.59" y="39.53" width="168.38" height="9.58"/><rect class="cls-3" x="256.59" y="24.81" width="135.5" height="7.11"/><rect class="cls-3" x="271.01" y="14.74" width="106" height="3.82"/><polygon class="cls-3" points="321.86 0 223.37 14.74 428.56 14.74 321.86 0"/></g></svg>